<?xml version="1.0" encoding="utf-8"?>
<!-- Generator: Adobe Illustrator 19.0.0, SVG Export Plug-In . SVG Version: 6.00 Build 0)  -->
<svg version="1.1" id="Livello_1" xmlns="http://www.w3.org/2000/svg" xmlns:xlink="http://www.w3.org/1999/xlink" x="0px" y="0px"
	 viewBox="0 0 757 323" style="enable-background:new 0 0 757 323;" xml:space="preserve">
<style type="text/css">
	.st0{fill:#60CBF7;}
	.st1{filter:url(#Adobe_OpacityMaskFilter);}
	.st2{clip-path:url(#SVGID_2_);fill:url(#SVGID_4_);}
	.st3{clip-path:url(#SVGID_2_);mask:url(#SVGID_3_);fill:#60CBF7;}
	.st4{fill:#1D1D1B;}
	.st5{enable-background:new    ;}
	.st6{clip-path:url(#SVGID_7_);enable-background:new    ;}
	.st7{fill:url(#SVGID_8_);}
	.st8{fill:url(#SVGID_9_);}
	.st9{fill:url(#SVGID_10_);}
	.st10{font-family:'AvantGardeLT-Demi';}
	.st11{font-size:12.157px;}
	.st12{fill:none;stroke:#000000;stroke-width:1.0131;stroke-miterlimit:10;}
	.st13{font-family:'GillSans-SemiBold';}
	.st14{font-size:54px;}
	.st15{fill:none;}
	.st16{opacity:0.25;}
	.st17{filter:url(#Adobe_OpacityMaskFilter_1_);}
	.st18{mask:url(#SVGID_11_);}
	.st19{fill:url(#SVGID_12_);}
	.st20{font-size:91px;}
	.st21{font-size:88px;}
</style>
<path d="M22.7,215.2h83.5c0.7,0,1.4-0.4,1.7-1l12.2-20.7H36.6c-0.7,0-1.4,0.4-1.7,1L22.7,215.2z"/>
<path class="st0" d="M17.1,227l82.6,0.3l-11,19.4c-0.4,0.6-1,1-1.7,1H4.1L15.3,228C15.7,227.3,16.4,227,17.1,227z"/>
<path class="st0" d="M237.7,7l-173,300.3c-0.1,0.2,0,0.4,0.2,0.4h27.3c0.3,0,0.6-0.2,0.7-0.4L240.2,53.8c0.3-0.6,1.1-0.6,1.5,0
	l111.6,193.8l30.4,0.1l0,0L239.1,7C238.8,6.4,238,6.4,237.7,7z"/>
<path d="M239.9,71.2L251,90.7c0.4,0.6,0.4,1.4,0,2L128.3,306.6c-0.4,0.6-1,1-1.7,1l-24.1,0.1c-0.4,0-0.6-0.4-0.4-0.8L239.9,71.2z"/>
<polygon points="257.8,138.3 243.9,161.3 271.8,161.3 "/>
<path d="M249.2,4.9L269,8.3c0.6,0.1,1.1,0.5,1.4,1l95.4,162.9c0.3,0.5,0.4,1.1,0.2,1.7l-6.7,18.6L249.2,4.9z"/>
<path d="M209.5,193.5H306c0.7,0,1.4,0.4,1.7,1l12.3,20.6l-124.4,0l12.2-20.5C208.2,193.9,208.8,193.5,209.5,193.5z"/>
<path class="st0" d="M188.6,226.9l138.2-0.5c0.7,0,1.4,0.4,1.7,1l11.7,20.2H175.5l11.4-19.7C187.2,227.3,187.9,226.9,188.6,226.9z"
	/>
<path d="M410,111.4v27.2h25.4v20H410v46.5c0,13,3.5,19.6,13.7,19.6c4.8,0,7.4-0.2,10.4-1.1l0.4,20.2c-3.9,1.5-11.1,2.8-19.4,2.8
	c-10,0-18-3.3-23.1-8.7c-5.9-6.1-8.5-15.9-8.5-29.8v-49.6h-15v-20h15v-19.8L410,111.4z"/>
<path d="M457.2,199c0.7,19.1,15.7,27.4,32.6,27.4c12.4,0,21.1-2,29.4-4.8l3.9,18.3c-9.1,3.9-21.7,6.7-37,6.7
	c-34.4,0-54.6-21.1-54.6-53.5c0-29.4,17.8-57,51.8-57c34.4,0,45.7,28.3,45.7,51.5c0,5-0.4,8.9-0.9,11.3H457.2z M503.8,180.3
	c0.2-9.8-4.1-25.9-22-25.9c-16.5,0-23.5,15-24.6,25.9H503.8z"/>
<g>
	<defs>
		<path id="SVGID_1_" d="M621.8,157.7v80.4c0,3.7-1.3,6.7-6.6,6.7h-11.4l-0.8,0.6v2.8H663v-2.8l-0.8-0.6h-11.9c-5.2,0-6.7-3-6.7-6.7
			v-71c0-18.6-14.3-31-40.4-31C615.3,136.3,621.8,144.5,621.8,157.7"/>
	</defs>
	<use xlink:href="#SVGID_1_"  style="overflow:visible;fill:#60CBF7;"/>
	<clipPath id="SVGID_2_">
		<use xlink:href="#SVGID_1_"  style="overflow:visible;"/>
	</clipPath>
	<defs>
		<filter id="Adobe_OpacityMaskFilter" filterUnits="userSpaceOnUse" x="603.1" y="136.1" width="59.9" height="112.1">
			<feColorMatrix  type="matrix" values="1 0 0 0 0  0 1 0 0 0  0 0 1 0 0  0 0 0 1 0"/>
		</filter>
	</defs>
	<mask maskUnits="userSpaceOnUse" x="603.1" y="136.1" width="59.9" height="112.1" id="SVGID_3_">
		<g class="st1">
			
				<linearGradient id="SVGID_4_" gradientUnits="userSpaceOnUse" x1="-91.7968" y1="-76.544" x2="-90.4505" y2="-76.544" gradientTransform="matrix(44.4885 0 0 -44.4885 4686.9678 -3213.1934)">
				<stop  offset="0" style="stop-color:#FFFFFF"/>
				<stop  offset="0.3695" style="stop-color:#FFFFFF"/>
				<stop  offset="0.6045" style="stop-color:#FDFDFD"/>
				<stop  offset="0.6891" style="stop-color:#F6F6F6"/>
				<stop  offset="0.7494" style="stop-color:#EBEBEB"/>
				<stop  offset="0.7982" style="stop-color:#DADADA"/>
				<stop  offset="0.84" style="stop-color:#C4C4C4"/>
				<stop  offset="0.877" style="stop-color:#A8A8A8"/>
				<stop  offset="0.9105" style="stop-color:#888888"/>
				<stop  offset="0.9413" style="stop-color:#626262"/>
				<stop  offset="0.9699" style="stop-color:#373737"/>
				<stop  offset="0.9953" style="stop-color:#090909"/>
				<stop  offset="1" style="stop-color:#000000"/>
			</linearGradient>
			<rect x="603.1" y="136.1" class="st2" width="59.9" height="112.1"/>
		</g>
	</mask>
	<rect x="603.1" y="136.1" class="st3" width="59.9" height="112.1"/>
</g>
<path class="st4" d="M565.3,236.8c0,3.7,1.4,6.7,6.7,6.7h11.9l0.8,0.6v2.8h-59.9V244l0.8-0.6h11.3c5.2,0,6.7-3,6.7-6.7v-74.6
	c0-9.3-5.2-9-12.2-2l-1.6,0.3l-1.9-1.9l23.3-23.5h11.6c1.3,0,2.8,0,2.8,1.9v5.9c0,5.1,4.6,4.6,9.5,1.6c-8,5.7-9.8,16.7-9.8,22V236.8
	z"/>
<g>
	<polygon class="st4" points="715.8,157.4 711.2,157.3 711.6,157.3 716.2,157.3 	"/>
</g>
<g>
	<g class="st5">
		<defs>
			<path id="SVGID_5_" class="st5" d="M683,247.5l-4.8-0.1c-5.9-0.1-11.6-1.3-16.9-3.7c-5.6-2.5-10.6-6.2-14.9-11.1
				c-4.3-4.8-7.8-10.7-10.4-17.6c-2.6-6.9-3.9-14.7-3.9-23.3c0-8,1.2-15.3,3.7-22c2.5-6.7,5.9-12.5,10.2-17.4
				c4.3-4.9,9.4-8.7,15.2-11.5c5.8-2.8,12.1-4.2,18.8-4.2c0.3,0,0.5,0,0.8,0l4.8,0.1c-0.3,0-0.5,0-0.8,0c-6.7,0-12.9,1.5-18.8,4.2
				c-5.8,2.8-10.9,6.6-15.2,11.5c-4.3,4.9-7.7,10.7-10.2,17.4c-2.5,6.7-3.7,14.1-3.7,22c0,8.6,1.3,16.4,3.9,23.3
				c2.6,6.9,6,12.8,10.4,17.6c4.3,4.8,9.3,8.5,14.9,11.1C671.5,246.2,677.1,247.4,683,247.5z"/>
		</defs>
		<radialGradient id="SVGID_6_" cx="635.8304" cy="186.86" r="106.6854" gradientUnits="userSpaceOnUse">
			<stop  offset="0" style="stop-color:#F6F6F6"/>
			<stop  offset="0.2249" style="stop-color:#E7E7E7"/>
			<stop  offset="0.6558" style="stop-color:#C0C0C0"/>
			<stop  offset="1" style="stop-color:#9D9D9C"/>
		</radialGradient>
		<use xlink:href="#SVGID_5_"  style="overflow:visible;fill:url(#SVGID_6_);"/>
		<clipPath id="SVGID_7_">
			<use xlink:href="#SVGID_5_"  style="overflow:visible;"/>
		</clipPath>
		<g class="st6">
			<radialGradient id="SVGID_8_" cx="635.8304" cy="186.86" r="106.6854" gradientUnits="userSpaceOnUse">
				<stop  offset="0" style="stop-color:#F6F6F6"/>
				<stop  offset="0.2249" style="stop-color:#E7E7E7"/>
				<stop  offset="0.6558" style="stop-color:#C0C0C0"/>
				<stop  offset="1" style="stop-color:#9D9D9C"/>
			</radialGradient>
			<path class="st7" d="M683,247.5l-4.8-0.1c-5.9-0.1-11.6-1.3-16.9-3.7c-5.6-2.5-10.6-6.2-14.9-11.1c-4.3-4.8-7.8-10.7-10.4-17.6
				c-2.6-6.9-3.9-14.7-3.9-23.3c0-8,1.2-15.3,3.7-22c2.4-6.3,5.5-11.7,9.4-16.4l4.8,0.1c-3.9,4.7-7.1,10.2-9.4,16.4
				c-2.5,6.7-3.7,14.1-3.7,22c0,8.6,1.3,16.4,3.9,23.3c2.6,6.9,6,12.8,10.4,17.6c4.3,4.8,9.3,8.5,14.9,11.1
				C671.5,246.2,677.1,247.4,683,247.5"/>
			<radialGradient id="SVGID_9_" cx="635.8304" cy="186.86" r="106.6854" gradientUnits="userSpaceOnUse">
				<stop  offset="0" style="stop-color:#F6F6F6"/>
				<stop  offset="0.2249" style="stop-color:#E7E7E7"/>
				<stop  offset="0.6558" style="stop-color:#C0C0C0"/>
				<stop  offset="1" style="stop-color:#9D9D9C"/>
			</radialGradient>
			<path class="st8" d="M650.1,153.3l-4.8-0.1c0.3-0.3,0.5-0.6,0.8-1c3.6-4.1,7.7-7.4,12.4-10.1l4.8,0.1c-4.6,2.6-8.8,6-12.4,10.1
				C650.6,152.6,650.3,152.9,650.1,153.3"/>
			<radialGradient id="SVGID_10_" cx="635.8304" cy="186.86" r="106.6854" gradientUnits="userSpaceOnUse">
				<stop  offset="0" style="stop-color:#F6F6F6"/>
				<stop  offset="0.2249" style="stop-color:#E7E7E7"/>
				<stop  offset="0.6558" style="stop-color:#C0C0C0"/>
				<stop  offset="1" style="stop-color:#9D9D9C"/>
			</radialGradient>
			<path class="st9" d="M663.2,142.2l-4.8-0.1c0.9-0.5,1.9-1,2.8-1.5c5.8-2.8,12.1-4.2,18.8-4.2c0.3,0,0.5,0,0.8,0l4.8,0.1
				c-0.3,0-0.5,0-0.8,0c-6.7,0-12.9,1.5-18.8,4.2C665.1,141.2,664.2,141.7,663.2,142.2"/>
		</g>
	</g>
</g>
<g>
	<path class="st4" d="M717,139.9l21.1-0.1l0.4,104l-21.1,0.1l0-12.9c-1.8,2.4-4.1,4.6-6.6,6.6c-2.6,2-5.4,3.8-8.3,5.2
		c-2.9,1.5-6,2.6-9.3,3.4c-3.2,0.8-6.3,1.3-9.3,1.3c-6.2,0-12.2-1.2-17.8-3.7c-5.6-2.5-10.6-6.2-14.9-11.1
		c-4.3-4.8-7.8-10.7-10.4-17.6c-2.6-6.9-3.9-14.7-3.9-23.3c0-8,1.2-15.3,3.7-22c2.5-6.7,5.9-12.5,10.2-17.4
		c4.3-4.9,9.4-8.7,15.2-11.5c5.8-2.8,12.1-4.2,18.8-4.2c4.9,0,9.2,0.8,13.1,2.3c3.9,1.6,7.2,3.4,9.9,5.3c2.7,1.9,4.8,3.8,6.3,5.6
		c1.5,1.8,2.4,2.9,2.6,3.3l0.3,0L717,139.9z M714.4,204.9c1.4-4,2.1-8.4,2.1-13.3c0-5.4-0.8-10.1-2.5-14.1c-1.6-4-3.8-7.4-6.4-10.1
		c-2.7-2.7-5.7-4.7-9-6c-3.4-1.4-6.8-2-10.2-2c-4.7,0-8.9,1.1-12.5,3.1c-3.6,2-6.5,4.6-8.9,7.8c-2.4,3.2-4.1,6.8-5.3,10.7
		c-1.2,3.9-1.8,7.9-1.8,11.7c0,4.4,0.8,8.5,2.2,12.4c1.5,3.9,3.5,7.3,6,10.2c2.5,2.9,5.6,5.1,9,6.8c3.5,1.7,7.3,2.5,11.4,2.5
		c3.9,0,7.6-0.9,11.1-2.5c3.5-1.6,6.4-3.9,8.9-6.8C711.1,212.4,713,208.9,714.4,204.9"/>
</g>
<g>
	<text transform="matrix(1 0 0 1 740.3151 131.2195)" class="st10 st11">R</text>
	<circle class="st12" cx="743.6" cy="126.9" r="7"/>
</g>
<text transform="matrix(1.0968 0 0 1 260.159 300.1051)" class="st4 st13 st14">soluzioni digitali</text>
<line class="st15" x1="257.9" y1="247.7" x2="257.9" y2="247.7"/>
<g class="st16">
	<defs>
		<filter id="Adobe_OpacityMaskFilter_1_" filterUnits="userSpaceOnUse" x="64.8" y="6.7" width="180" height="301.4">
			<feFlood  style="flood-color:white;flood-opacity:1" result="back"/>
			<feBlend  in="SourceGraphic" in2="back" mode="normal"/>
		</filter>
	</defs>
	<mask maskUnits="userSpaceOnUse" x="64.8" y="6.7" width="180" height="301.4" id="SVGID_11_">
		<g class="st17">
			
				<image style="overflow:visible;" width="767" height="1273" xlink:href="AF0C2C47B35E668D.jpg"  transform="matrix(0.24 0 0 0.24 62.8381 4.7236)">
			</image>
		</g>
	</mask>
	<g class="st18">
		
			<linearGradient id="SVGID_12_" gradientUnits="userSpaceOnUse" x1="92.0763" y1="102.2657" x2="208.5104" y2="195.5672" gradientTransform="matrix(1.0105 3.828618e-02 -3.860267e-02 1.0188 1.7217 -3.6149)">
			<stop  offset="0" style="stop-color:#FFFFFF"/>
			<stop  offset="1" style="stop-color:#B8E9FF"/>
		</linearGradient>
		<path class="st19" d="M238.7,7.1l6.1,12.5l-166.8,288c0,0.1-0.2,0.4-0.2,0.4l-12.9-0.5c-0.2,0,0.1-0.4,0.2-0.6L237.6,7.1
			C237.8,6.6,238.5,6.6,238.7,7.1z"/>
	</g>
</g>
<rect x="208.3" y="257.5" class="st15" width="103.6" height="71.3"/>
<text transform="matrix(1 0 0 1 208.3422 319.5723)" class="st13 st20">&lt;</text>
<text transform="matrix(1 0 0 1 677.578 317.9166)" class="st13 st21">&gt;</text>
</svg>
